<mxfile host="Electron" modified="2024-03-24T19:37:24.993Z" agent="Mozilla/5.0 (Windows NT 10.0; Win64; x64) AppleWebKit/537.36 (KHTML, like Gecko) draw.io/24.0.4 Chrome/120.0.6099.109 Electron/28.1.0 Safari/537.36" etag="g7Tyjau0zGvr6bwPT8Fe" version="24.0.4" type="device">
  <diagram name="Страница — 1" id="MsgfEu5UXu-GU-6YAAAl">
    <mxGraphModel dx="2261" dy="836" grid="1" gridSize="10" guides="1" tooltips="1" connect="1" arrows="1" fold="1" page="1" pageScale="1" pageWidth="827" pageHeight="1169" math="0" shadow="0">
      <root>
        <mxCell id="0" />
        <mxCell id="1" parent="0" />
        <mxCell id="hTVs9SLWPzjv3B5Vgc62-1" value="Инвестор" style="shape=umlActor;verticalLabelPosition=bottom;verticalAlign=top;html=1;outlineConnect=0;" vertex="1" parent="1">
          <mxGeometry x="130" y="100" width="30" height="60" as="geometry" />
        </mxCell>
        <mxCell id="hTVs9SLWPzjv3B5Vgc62-4" value="" style="rhombus;whiteSpace=wrap;html=1;" vertex="1" parent="1">
          <mxGeometry x="360" y="80" width="80" height="80" as="geometry" />
        </mxCell>
        <mxCell id="hTVs9SLWPzjv3B5Vgc62-5" value="&lt;span style=&quot;color: rgb(240, 240, 240); font-family: Helvetica; font-size: 12px; font-style: normal; font-variant-ligatures: normal; font-variant-caps: normal; font-weight: 400; letter-spacing: normal; orphans: 2; text-align: center; text-indent: 0px; text-transform: none; widows: 2; word-spacing: 0px; -webkit-text-stroke-width: 0px; white-space: normal; background-color: rgb(27, 29, 30); text-decoration-thickness: initial; text-decoration-style: initial; text-decoration-color: initial; display: inline !important; float: none;&quot;&gt;Смарт-контракт &quot;Инвестиция&quot;&lt;/span&gt;" style="text;whiteSpace=wrap;html=1;" vertex="1" parent="1">
          <mxGeometry x="314" y="160" width="200" height="40" as="geometry" />
        </mxCell>
        <mxCell id="hTVs9SLWPzjv3B5Vgc62-6" value="" style="rhombus;whiteSpace=wrap;html=1;" vertex="1" parent="1">
          <mxGeometry x="740" y="80" width="80" height="80" as="geometry" />
        </mxCell>
        <mxCell id="hTVs9SLWPzjv3B5Vgc62-7" value="&lt;span style=&quot;color: rgb(240, 240, 240); font-family: Helvetica; font-size: 12px; font-style: normal; font-variant-ligatures: normal; font-variant-caps: normal; font-weight: 400; letter-spacing: normal; orphans: 2; text-align: center; text-indent: 0px; text-transform: none; widows: 2; word-spacing: 0px; -webkit-text-stroke-width: 0px; white-space: normal; background-color: rgb(27, 29, 30); text-decoration-thickness: initial; text-decoration-style: initial; text-decoration-color: initial; display: inline !important; float: none;&quot;&gt;Смарт-контракт &quot;Проект&quot;&lt;/span&gt;" style="text;whiteSpace=wrap;html=1;" vertex="1" parent="1">
          <mxGeometry x="700" y="160" width="200" height="40" as="geometry" />
        </mxCell>
        <mxCell id="hTVs9SLWPzjv3B5Vgc62-8" value="" style="endArrow=none;html=1;rounded=0;dashed=1;" edge="1" parent="1">
          <mxGeometry width="50" height="50" relative="1" as="geometry">
            <mxPoint x="140" y="730" as="sourcePoint" />
            <mxPoint x="140" y="190" as="targetPoint" />
          </mxGeometry>
        </mxCell>
        <mxCell id="hTVs9SLWPzjv3B5Vgc62-9" value="" style="endArrow=none;html=1;rounded=0;dashed=1;" edge="1" parent="1">
          <mxGeometry width="50" height="50" relative="1" as="geometry">
            <mxPoint x="399.5" y="730" as="sourcePoint" />
            <mxPoint x="399.5" y="190" as="targetPoint" />
          </mxGeometry>
        </mxCell>
        <mxCell id="hTVs9SLWPzjv3B5Vgc62-10" value="" style="endArrow=none;html=1;rounded=0;dashed=1;" edge="1" parent="1">
          <mxGeometry width="50" height="50" relative="1" as="geometry">
            <mxPoint x="779.5" y="730" as="sourcePoint" />
            <mxPoint x="779.5" y="190" as="targetPoint" />
          </mxGeometry>
        </mxCell>
        <mxCell id="hTVs9SLWPzjv3B5Vgc62-11" value="" style="endArrow=classic;html=1;rounded=0;" edge="1" parent="1">
          <mxGeometry width="50" height="50" relative="1" as="geometry">
            <mxPoint x="140" y="250" as="sourcePoint" />
            <mxPoint x="400" y="250" as="targetPoint" />
          </mxGeometry>
        </mxCell>
        <mxCell id="hTVs9SLWPzjv3B5Vgc62-12" value="Инвестировать" style="text;html=1;align=center;verticalAlign=middle;resizable=0;points=[];autosize=1;strokeColor=none;fillColor=none;" vertex="1" parent="1">
          <mxGeometry x="215" y="228" width="110" height="30" as="geometry" />
        </mxCell>
        <mxCell id="hTVs9SLWPzjv3B5Vgc62-13" value="Инвестирование" style="text;html=1;align=center;verticalAlign=middle;resizable=0;points=[];autosize=1;strokeColor=none;fillColor=none;" vertex="1" parent="1">
          <mxGeometry x="340" width="120" height="30" as="geometry" />
        </mxCell>
        <mxCell id="hTVs9SLWPzjv3B5Vgc62-14" value="Касса" style="shape=umlActor;verticalLabelPosition=bottom;verticalAlign=top;html=1;outlineConnect=0;" vertex="1" parent="1">
          <mxGeometry x="590" y="100" width="30" height="60" as="geometry" />
        </mxCell>
        <mxCell id="hTVs9SLWPzjv3B5Vgc62-15" value="" style="endArrow=none;html=1;rounded=0;dashed=1;" edge="1" parent="1">
          <mxGeometry width="50" height="50" relative="1" as="geometry">
            <mxPoint x="604.5" y="730" as="sourcePoint" />
            <mxPoint x="604.5" y="190" as="targetPoint" />
          </mxGeometry>
        </mxCell>
        <mxCell id="hTVs9SLWPzjv3B5Vgc62-16" value="" style="endArrow=classic;html=1;rounded=0;" edge="1" parent="1">
          <mxGeometry width="50" height="50" relative="1" as="geometry">
            <mxPoint x="400" y="320" as="sourcePoint" />
            <mxPoint x="140" y="320" as="targetPoint" />
          </mxGeometry>
        </mxCell>
        <mxCell id="hTVs9SLWPzjv3B5Vgc62-18" value="Номер инвестиции" style="text;html=1;align=center;verticalAlign=middle;resizable=0;points=[];autosize=1;strokeColor=none;fillColor=none;" vertex="1" parent="1">
          <mxGeometry x="205" y="298" width="130" height="30" as="geometry" />
        </mxCell>
        <mxCell id="hTVs9SLWPzjv3B5Vgc62-19" value="" style="endArrow=classic;html=1;rounded=0;" edge="1" parent="1">
          <mxGeometry width="50" height="50" relative="1" as="geometry">
            <mxPoint x="140" y="372" as="sourcePoint" />
            <mxPoint x="610" y="372" as="targetPoint" />
          </mxGeometry>
        </mxCell>
        <mxCell id="hTVs9SLWPzjv3B5Vgc62-21" value="Перевод денег на счет держателя денежных средств" style="text;html=1;align=center;verticalAlign=middle;resizable=0;points=[];autosize=1;strokeColor=none;fillColor=none;" vertex="1" parent="1">
          <mxGeometry x="240" y="350" width="320" height="30" as="geometry" />
        </mxCell>
        <mxCell id="hTVs9SLWPzjv3B5Vgc62-22" value="" style="endArrow=classic;html=1;rounded=0;" edge="1" parent="1">
          <mxGeometry width="50" height="50" relative="1" as="geometry">
            <mxPoint x="600" y="422" as="sourcePoint" />
            <mxPoint x="400" y="422" as="targetPoint" />
          </mxGeometry>
        </mxCell>
        <mxCell id="hTVs9SLWPzjv3B5Vgc62-24" value="Подтверждение приема д.с." style="text;html=1;align=center;verticalAlign=middle;resizable=0;points=[];autosize=1;strokeColor=none;fillColor=none;" vertex="1" parent="1">
          <mxGeometry x="414" y="400" width="180" height="30" as="geometry" />
        </mxCell>
        <mxCell id="hTVs9SLWPzjv3B5Vgc62-26" value="" style="curved=1;endArrow=classic;html=1;rounded=0;" edge="1" parent="1">
          <mxGeometry width="50" height="50" relative="1" as="geometry">
            <mxPoint x="400" y="460" as="sourcePoint" />
            <mxPoint x="400" y="520" as="targetPoint" />
            <Array as="points">
              <mxPoint x="510" y="450" />
              <mxPoint x="460" y="530" />
            </Array>
          </mxGeometry>
        </mxCell>
        <mxCell id="hTVs9SLWPzjv3B5Vgc62-27" value="Проверка на держателя д.с." style="text;html=1;align=center;verticalAlign=middle;resizable=0;points=[];autosize=1;strokeColor=none;fillColor=none;" vertex="1" parent="1">
          <mxGeometry x="414" y="430" width="180" height="30" as="geometry" />
        </mxCell>
        <mxCell id="hTVs9SLWPzjv3B5Vgc62-28" value="Автор проекта" style="shape=umlActor;verticalLabelPosition=bottom;verticalAlign=top;html=1;outlineConnect=0;" vertex="1" parent="1">
          <mxGeometry x="-50" y="100" width="30" height="60" as="geometry" />
        </mxCell>
        <mxCell id="hTVs9SLWPzjv3B5Vgc62-30" value="" style="curved=1;endArrow=classic;html=1;rounded=0;" edge="1" parent="1">
          <mxGeometry width="50" height="50" relative="1" as="geometry">
            <mxPoint x="400" y="560" as="sourcePoint" />
            <mxPoint x="400" y="620" as="targetPoint" />
            <Array as="points">
              <mxPoint x="510" y="550" />
              <mxPoint x="460" y="630" />
            </Array>
          </mxGeometry>
        </mxCell>
        <mxCell id="hTVs9SLWPzjv3B5Vgc62-31" value="Выставление флага принятия д.с." style="text;html=1;align=center;verticalAlign=middle;resizable=0;points=[];autosize=1;strokeColor=none;fillColor=none;" vertex="1" parent="1">
          <mxGeometry x="399" y="530" width="210" height="30" as="geometry" />
        </mxCell>
        <mxCell id="hTVs9SLWPzjv3B5Vgc62-33" value="" style="endArrow=none;html=1;rounded=0;dashed=1;" edge="1" parent="1">
          <mxGeometry width="50" height="50" relative="1" as="geometry">
            <mxPoint x="-35.5" y="740" as="sourcePoint" />
            <mxPoint x="-35.5" y="200" as="targetPoint" />
          </mxGeometry>
        </mxCell>
        <mxCell id="hTVs9SLWPzjv3B5Vgc62-35" value="" style="endArrow=classic;html=1;rounded=0;" edge="1" parent="1">
          <mxGeometry width="50" height="50" relative="1" as="geometry">
            <mxPoint x="-40" y="680" as="sourcePoint" />
            <mxPoint x="400" y="680" as="targetPoint" />
          </mxGeometry>
        </mxCell>
        <mxCell id="hTVs9SLWPzjv3B5Vgc62-37" value="Выставление флага принятия инвестиции" style="text;html=1;align=center;verticalAlign=middle;resizable=0;points=[];autosize=1;strokeColor=none;fillColor=none;" vertex="1" parent="1">
          <mxGeometry x="15" y="648" width="260" height="30" as="geometry" />
        </mxCell>
        <mxCell id="hTVs9SLWPzjv3B5Vgc62-38" value="" style="endArrow=classic;html=1;rounded=0;" edge="1" parent="1">
          <mxGeometry width="50" height="50" relative="1" as="geometry">
            <mxPoint x="400" y="720" as="sourcePoint" />
            <mxPoint x="780" y="720" as="targetPoint" />
          </mxGeometry>
        </mxCell>
        <mxCell id="hTVs9SLWPzjv3B5Vgc62-39" value="Изменение суммы инвестиций" style="text;html=1;align=center;verticalAlign=middle;resizable=0;points=[];autosize=1;strokeColor=none;fillColor=none;" vertex="1" parent="1">
          <mxGeometry x="510" y="688" width="190" height="30" as="geometry" />
        </mxCell>
      </root>
    </mxGraphModel>
  </diagram>
</mxfile>
